<?xml version="1.0" encoding="UTF-8"?>
<svg xmlns="http://www.w3.org/2000/svg" xmlns:xlink="http://www.w3.org/1999/xlink" viewBox="0 0 32 32" version="1.1" width="32px" height="32px">
<g id="surface1">
<path style=" " d="M 16 13.394531 C 16.492188 13.394531 16.613281 13.511719 16.613281 13.511719 L 16.859375 12.488281 C 16.859375 12.488281 17.105469 13.394531 17.105469 14.191406 C 17.230469 14.875 18.585938 14.417969 19.691406 14.191406 C 20.921875 13.964844 21 11.972656 21 11.972656 L 32 11.972656 C 32 11.972656 25.398438 13.996094 27 17.972656 C 27 17.972656 17.476563 16.464844 16 22.03125 C 14.523438 16.464844 5 17.972656 5 17.972656 C 6.601563 13.996094 0 11.972656 0 11.972656 L 11 11.972656 C 11 11.972656 11.078125 13.964844 12.183594 14.191406 C 13.292969 14.417969 14.769531 14.875 14.769531 14.191406 C 14.894531 13.511719 15.015625 12.488281 15.015625 12.488281 L 15.261719 13.511719 C 15.386719 13.511719 15.632813 13.394531 16 13.394531 Z "/>
</g>
</svg>
