<?xml version="1.0" encoding="UTF-8"?>
<svg xmlns="http://www.w3.org/2000/svg" xmlns:xlink="http://www.w3.org/1999/xlink" viewBox="0 0 26 26" version="1.1" width="26px" height="26px">
<g id="surface1">
<path style=" " d="M 13 0 C 5.800781 0 0 5.800781 0 13 C 0 20.199219 5.800781 26 13 26 C 20.199219 26 26 20.199219 26 13 C 26 5.800781 20.199219 0 13 0 Z M 13 2.3125 C 18.898438 2.3125 23.6875 7.101563 23.6875 13 C 23.6875 18.898438 18.898438 23.6875 13 23.6875 C 7.101563 23.6875 2.3125 18.898438 2.3125 13 C 2.3125 7.101563 7.101563 2.3125 13 2.3125 Z M 13 4.6875 C 8.398438 4.6875 4.6875 8.398438 4.6875 13 C 4.6875 17.601563 8.398438 21.3125 13 21.3125 C 17.601563 21.3125 21.3125 17.601563 21.3125 13 C 21.3125 8.398438 17.601563 4.6875 13 4.6875 Z M 13 7 C 16.300781 7 19 9.699219 19 13 C 19 16.300781 16.300781 19 13 19 C 9.699219 19 7 16.300781 7 13 C 7 9.699219 9.699219 7 13 7 Z M 13 7.1875 L 11.8125 10.90625 L 7.6875 10.90625 L 11 13.5 L 9.6875 17.59375 L 13 15.09375 L 16.40625 17.5 L 15.1875 13.5 L 18.5 10.90625 L 14.3125 10.90625 Z "/>
</g>
</svg>
